<svg xmlns="http://www.w3.org/2000/svg" viewBox="0 0 267.31 58.38"><defs><style>.cls-1{fill:#fff;}</style></defs><title>Logo-fenua-white</title><g id="Calque_2" data-name="Calque 2"><g id="Calque_1-2" data-name="Calque 1"><path class="cls-1" d="M14.87,57.59H0V0H14.87ZM38.8,12H10.72V0H38.8ZM36.66,35.4H10.72V23.45H36.66Z"/><path class="cls-1" d="M63.06,57.59H48.19V0H63.06ZM88.33,12H57.8V0H88.33Zm-4,21.84H57.8V22.31H84.3Zm3.91,23.77H57.8v-12H88.21Z"/><path class="cls-1" d="M146.13,57.59H131.34l-19-33.31V57.59H97.48V0h14.84l19,33.3V0h14.79Z"/><path class="cls-1" d="M204.05,0V37.3a22,22,0,0,1-2.83,11.51,18.06,18.06,0,0,1-7.95,7.13,27.67,27.67,0,0,1-12,2.44,28,28,0,0,1-12-2.44,18.37,18.37,0,0,1-8.09-7.13,21.59,21.59,0,0,1-2.89-11.51V0h14.91V37.3a13,13,0,0,0,.91,5.3,5.82,5.82,0,0,0,2.73,2.92,9.86,9.86,0,0,0,4.47.91,9.63,9.63,0,0,0,4.45-.91,5.76,5.76,0,0,0,2.65-2.92,13.35,13.35,0,0,0,.89-5.3V0Z"/><path class="cls-1" d="M227,57.59H211L232.15,0h10l-1.74,13.88Zm24.24-9.65H221.67V36h29.54ZM237.84,13.88,235.9,0h10.17l21.24,57.59H251.37Z"/></g></g></svg>
